<svg width="29" height="29" viewBox="0 0 29 29" fill="none" xmlns="http://www.w3.org/2000/svg">
<path opacity="0.3" d="M5.34985 5.99185C5.27694 6.03046 5.22236 6.09646 5.19812 6.17532C5.17387 6.25418 5.18195 6.33944 5.22057 6.41235L8.13395 11.9123C8.24981 12.1311 8.27403 12.3868 8.2013 12.6234C8.12856 12.86 7.96483 13.058 7.74611 13.1738L2.24831 16.0861C2.17541 16.1247 2.12083 16.1907 2.09659 16.2695C2.07234 16.3484 2.08042 16.4337 2.11903 16.5066L5.90492 23.6537C5.9853 23.8054 6.17368 23.8634 6.32542 23.783L11.8232 20.8708C12.0419 20.7549 12.2977 20.7307 12.5343 20.8034C12.7709 20.8762 12.9689 21.0399 13.0847 21.2586L15.9975 26.7575C16.0779 26.9092 16.2663 26.9672 16.418 26.8868L23.5652 23.1009C23.6381 23.0623 23.6926 22.9963 23.7169 22.9174C23.7411 22.8386 23.7331 22.7533 23.6944 22.6804L20.7816 17.1815C20.6658 16.9628 20.6416 16.707 20.7143 16.4704C20.787 16.2338 20.9508 16.0359 21.1695 15.92L26.6673 13.0078C26.7402 12.9692 26.7948 12.9032 26.819 12.8243C26.8433 12.7454 26.8352 12.6602 26.7966 12.5873L23.0107 5.44014C22.9721 5.36723 22.9061 5.31265 22.8272 5.28841C22.7483 5.26416 22.6631 5.27224 22.5902 5.31086L17.0924 8.22308C16.8737 8.33893 16.6179 8.36316 16.3813 8.29042C16.1447 8.21769 15.9467 8.05395 15.8309 7.83524L12.9181 2.33634C12.8795 2.26343 12.8135 2.20886 12.7346 2.18461C12.6557 2.16037 12.5705 2.16844 12.4976 2.20706L5.34985 5.99185ZM3.57123 7.28601C3.00859 6.22384 3.414 4.90515 4.47618 4.34251L11.6233 0.556621C12.6855 -0.00601971 14.0042 0.399399 14.5668 1.46157L17.0434 6.1369L21.7165 3.66152C22.7787 3.09888 24.0968 3.5032 24.66 4.56647L28.4459 11.7136C28.7162 12.2239 28.7728 12.8208 28.603 13.3728C28.4333 13.9248 28.0513 14.3868 27.5409 14.6571L22.8678 17.1325L25.3438 21.8067C25.6141 22.3171 25.6706 22.9139 25.5009 23.4659C25.3312 24.0179 24.9492 24.4799 24.4388 24.7502L17.2917 28.5361C16.7814 28.8065 16.1845 28.863 15.6325 28.6933C15.0805 28.5236 14.6185 28.1415 14.3482 27.6312L11.8722 22.9569L7.19909 25.4323C6.68875 25.7027 6.09192 25.7592 5.53991 25.5895C4.9879 25.4198 4.52591 25.0377 4.25558 24.5274L0.469695 17.3802C-0.0929467 16.3181 0.312473 14.9994 1.37465 14.4367L6.04778 11.9613L3.57123 7.28601Z" fill="#27BBA2"/>
</svg>
