<svg width="32" height="21" viewBox="0 0 32 21" fill="none" xmlns="http://www.w3.org/2000/svg">
<path opacity="0.3" d="M16.5824 2.96046C19.108 3.12626 21.5355 4.00141 23.5859 5.4853C25.6363 6.96918 27.2263 9.00155 28.1732 11.3488C25.5881 15.8202 20.7585 18.4259 15.5403 18.0659C10.3221 17.7059 5.89611 14.4616 3.94957 9.67755C5.2098 7.4826 7.06385 5.68784 9.29859 4.49959C11.5333 3.31135 14.058 2.77786 16.5824 2.96046ZM16.7719 0.214019C9.90582 -0.259683 3.74753 3.60649 0.955951 9.47102C2.91571 15.6633 8.48471 20.3386 15.3508 20.8123C22.2169 21.286 28.3752 17.4198 31.1668 11.5553C29.207 5.36297 23.638 0.68772 16.7719 0.214019ZM16.2982 7.08011C17.2087 7.14293 18.057 7.56487 18.6564 8.25311C19.2558 8.94135 19.5572 9.83951 19.4944 10.75C19.4316 11.6605 19.0097 12.5088 18.3214 13.1082C17.6332 13.7076 16.735 14.009 15.8245 13.9462C14.914 13.8834 14.0658 13.4615 13.4663 12.7732C12.8669 12.085 12.5655 11.1868 12.6283 10.2763C12.6911 9.36581 13.1131 8.51755 13.8013 7.91815C14.4895 7.31875 15.3877 7.0173 16.2982 7.08011ZM16.4877 4.33368C13.0821 4.09872 10.1168 6.68125 9.88187 10.0868C9.64692 13.4924 12.2294 16.4577 15.635 16.6926C19.0406 16.9276 22.0059 14.3451 22.2408 10.9395C22.4758 7.53391 19.8933 4.56863 16.4877 4.33368Z" fill="#27BBA2"/>
</svg>
