<svg width="39" height="38" viewBox="0 0 39 38" fill="none" xmlns="http://www.w3.org/2000/svg">
<path opacity="0.3" d="M7.6909 7.74509C7.59433 7.79625 7.52203 7.88368 7.48991 7.98814C7.45779 8.09261 7.46849 8.20555 7.51965 8.30213L11.379 15.5879C11.5324 15.8776 11.5645 16.2165 11.4682 16.5299C11.3718 16.8433 11.1549 17.1055 10.8652 17.259L3.58234 21.1168C3.48576 21.1679 3.41346 21.2554 3.38135 21.3598C3.34923 21.4643 3.35993 21.5772 3.41108 21.6738L8.4262 31.1416C8.53268 31.3426 8.78223 31.4193 8.98323 31.3128L16.2661 27.455C16.5558 27.3016 16.8947 27.2695 17.2081 27.3658C17.5215 27.4622 17.7837 27.6791 17.9372 27.9688L21.7958 35.2531C21.9022 35.4541 22.1518 35.5308 22.3528 35.4244L31.8205 30.4093C31.9171 30.3581 31.9894 30.2707 32.0215 30.1662C32.0536 30.0617 32.0429 29.9488 31.9918 29.8522L28.1332 22.5679C27.9798 22.2782 27.9477 21.9393 28.044 21.6259C28.1404 21.3126 28.3573 21.0503 28.647 20.8968L35.9299 17.039C36.0264 16.9879 36.0987 16.9004 36.1309 16.796C36.163 16.6915 36.1523 16.5786 36.1011 16.482L31.086 7.01425C31.0348 6.91767 30.9474 6.84537 30.8429 6.81326C30.7385 6.78114 30.6255 6.79184 30.529 6.84299L23.2461 10.7008C22.9564 10.8542 22.6175 10.8863 22.3041 10.79C21.9907 10.6936 21.7285 10.4767 21.575 10.187L17.7164 2.90269C17.6653 2.80611 17.5779 2.73381 17.4734 2.70169C17.3689 2.66958 17.256 2.68027 17.1594 2.73143L7.6909 7.74509ZM5.33479 9.45946C4.58946 8.05241 5.12652 6.30556 6.53357 5.56023L16.0013 0.545114C17.4084 -0.20021 19.1552 0.336844 19.9005 1.7439L23.1812 7.93725L29.3716 4.65813C30.7787 3.91281 32.5248 4.44841 33.2709 5.85691L38.286 15.3246C38.6441 16.0007 38.719 16.7913 38.4941 17.5225C38.2693 18.2538 37.7632 18.8658 37.0872 19.2239L30.8968 22.503L34.1766 28.6949C34.5347 29.3709 34.6096 30.1615 34.3848 30.8928C34.16 31.624 33.6539 32.236 32.9779 32.5941L23.5101 37.6092C22.8341 37.9673 22.0435 38.0422 21.3122 37.8174C20.581 37.5926 19.969 37.0865 19.6109 36.4105L16.331 30.2186L10.1406 33.4977C9.46453 33.8558 8.67393 33.9307 7.94268 33.7058C7.21143 33.481 6.59944 32.9749 6.24134 32.2989L1.22622 22.8312C0.480899 21.4241 1.01795 19.6773 2.425 18.9319L8.61544 15.6528L5.33479 9.45946Z" fill="#27BBA2"/>
</svg>
