<svg width="42" height="32" viewBox="0 0 42 32" fill="none" xmlns="http://www.w3.org/2000/svg">
<path opacity="0.3" d="M24.9976 5.52785C28.4362 6.70865 31.4718 8.83584 33.7554 11.6649C36.039 14.4939 37.4779 17.91 37.9067 21.5203C32.6395 26.7454 24.9635 28.5391 17.8653 26.0752C10.7672 23.6113 5.85327 17.4475 4.95625 10.0827C7.52969 7.51449 10.7756 5.72463 14.3209 4.91888C17.8662 4.11313 21.5669 4.32421 24.9976 5.52785ZM26.2944 1.79197C16.9547 -1.44999 6.96211 1.59068 0.884139 8.66921C1.26924 17.9912 7.22884 26.5691 16.5685 29.8111C25.9082 33.053 35.9008 30.0123 41.9788 22.9338C41.5937 13.6118 35.6341 5.03392 26.2944 1.79197ZM23.0524 11.1317C24.291 11.5616 25.308 12.4659 25.8798 13.6456C26.4515 14.8254 26.5312 16.184 26.1013 17.4225C25.6714 18.661 24.7671 19.678 23.5873 20.2498C22.4076 20.8216 21.049 20.9013 19.8105 20.4714C18.572 20.0414 17.555 19.1371 16.9832 17.9574C16.4114 16.7776 16.3317 15.4191 16.7616 14.1805C17.1915 12.942 18.0958 11.925 19.2756 11.3532C20.4554 10.7815 21.8139 10.7018 23.0524 11.1317ZM24.3492 7.39579C19.7167 5.78778 14.6338 8.25126 13.0257 12.8838C11.4177 17.5162 13.8812 22.5992 18.5137 24.2072C23.1462 25.8152 28.2292 23.3518 29.8372 18.7193C31.4452 14.0868 28.9817 9.0038 24.3492 7.39579Z" fill="#27BBA2"/>
</svg>
