<svg width="40" height="24" viewBox="0 0 40 24" fill="none" xmlns="http://www.w3.org/2000/svg">
<path opacity="0.3" d="M20.7274 3.24491C23.9316 3.43069 27.0115 4.41125 29.6128 6.07386C32.2142 7.73647 34.2315 10.0136 35.4328 12.6436C32.153 17.6536 26.0257 20.5731 19.4052 20.1697C12.7847 19.7664 7.16941 16.1314 4.6998 10.7711C6.29868 8.31174 8.65096 6.3008 11.4862 4.96943C14.3215 3.63807 17.5246 3.04032 20.7274 3.24491ZM20.9678 0.167668C12.2566 -0.36309 4.44347 3.96875 0.901729 10.5397C3.38812 17.4778 10.4536 22.7162 19.1648 23.247C27.876 23.7777 35.6891 19.4459 39.2309 12.875C36.7445 5.9368 29.679 0.698426 20.9678 0.167668ZM20.3668 7.86077C21.522 7.93115 22.5982 8.40391 23.3586 9.17505C24.1191 9.94619 24.5016 10.9525 24.4219 11.9727C24.3422 12.9929 23.8069 13.9433 22.9337 14.6149C22.0605 15.2865 20.921 15.6243 19.7658 15.5539C18.6106 15.4835 17.5344 15.0107 16.774 14.2396C16.0135 13.4685 15.631 12.4621 15.7107 11.4419C15.7904 10.4218 16.3257 9.47135 17.1989 8.79975C18.0721 8.12815 19.2116 7.79039 20.3668 7.86077ZM20.6072 4.78353C16.2865 4.52027 12.5243 7.41386 12.2262 11.2296C11.9282 15.0454 15.2047 18.3679 19.5254 18.6311C23.8461 18.8944 27.6083 16.0008 27.9064 12.185C28.2044 8.36923 24.9279 5.04679 20.6072 4.78353Z" fill="#27BBA2"/>
</svg>
