<svg width="37" height="33" viewBox="0 0 37 33" fill="none" xmlns="http://www.w3.org/2000/svg">
<path opacity="0.3" d="M6.91997 7.14754C6.82748 7.19081 6.75823 7.26476 6.72747 7.35312C6.69671 7.44147 6.70696 7.53701 6.75595 7.61869L10.4522 13.7812C10.5992 14.0262 10.63 14.3128 10.5377 14.5779C10.4454 14.843 10.2377 15.0648 9.96017 15.1946L2.98499 18.4576C2.89249 18.5009 2.82325 18.5748 2.79249 18.6632C2.76173 18.7515 2.77197 18.8471 2.82097 18.9287L7.62421 26.9367C7.72618 27.1068 7.96519 27.1717 8.15771 27.0816L15.1329 23.8186C15.4104 23.6888 15.7349 23.6616 16.035 23.7431C16.3352 23.8246 16.5864 24.0081 16.7334 24.2532L20.4289 30.4144C20.5309 30.5844 20.7699 30.6493 20.9624 30.5592L30.0302 26.3173C30.1227 26.2741 30.1919 26.2001 30.2227 26.1118C30.2534 26.0234 30.2432 25.9279 30.1942 25.8462L26.4986 19.685C26.3517 19.4399 26.3209 19.1533 26.4132 18.8882C26.5055 18.6232 26.7132 18.4013 26.9907 18.2715L33.9659 15.0085C34.0584 14.9653 34.1276 14.8913 34.1584 14.803C34.1891 14.7146 34.1789 14.6191 34.1299 14.5374L29.3267 6.52938C29.2777 6.44769 29.1939 6.38654 29.0939 6.35937C28.9938 6.33221 28.8857 6.34126 28.7932 6.38453L21.818 9.64752C21.5405 9.77733 21.216 9.80447 20.9158 9.72298C20.6157 9.64148 20.3645 9.45803 20.2175 9.21297L16.522 3.05174C16.473 2.97005 16.3892 2.9089 16.2892 2.88173C16.1891 2.85457 16.0809 2.86362 15.9885 2.90689L6.91997 7.14754ZM4.6634 8.59759C3.94956 7.40748 4.46393 5.92995 5.81153 5.29954L14.8793 1.05765C16.2269 0.427244 17.8999 0.881495 18.6138 2.07161L21.7558 7.31007L27.6847 4.53653C29.0323 3.90612 30.7046 4.35914 31.4192 5.55048L36.2225 13.5585C36.5654 14.1303 36.6371 14.799 36.4218 15.4175C36.2065 16.036 35.7218 16.5536 35.0743 16.8565L29.1454 19.6301L32.2867 24.8673C32.6297 25.4391 32.7014 26.1078 32.4861 26.7263C32.2708 27.3448 31.7861 27.8625 31.1386 28.1653L22.0709 32.4072C21.4234 32.7101 20.6662 32.7735 19.9658 32.5833C19.2655 32.3932 18.6793 31.9651 18.3364 31.3933L15.1951 26.1561L9.26615 28.9296C8.61867 29.2325 7.86146 29.2958 7.16111 29.1057C6.46076 28.9155 5.87462 28.4874 5.53165 27.9156L0.728415 19.9076C0.0145796 18.7175 0.528944 17.24 1.87655 16.6096L7.80546 13.8361L4.6634 8.59759Z" fill="#27BBA2"/>
</svg>
