<svg width="204" height="68" viewBox="0 0 204 68" fill="none" xmlns="http://www.w3.org/2000/svg">
<path d="M161.756 27.5499C152.637 19.5392 139.752 17.3576 129.451 15.3054C96.573 8.75509 62.5186 3.45922 29.7658 8.11811C19.5756 9.5676 5.08119 12.5193 2.18915 27.4546C-1.29061 45.4249 14.7355 57.072 26.1753 60.7425C51.4255 68.8444 78.8248 67.3668 104.034 66.0033C130.843 64.5533 159.421 62.7101 184.811 51.999C190.622 49.5477 199.253 44.4938 202.579 37.1383C204.971 31.8493 199.849 28.6948 196.72 26.7625C180.307 16.6256 161.979 8.91002 144.471 3.70518C129.966 -0.607234 116.427 1.31038 102.18 3.67081" stroke="#27BBA2" stroke-width="1.5" stroke-linecap="round"/>
</svg>
