<svg width="308" height="322" viewBox="0 0 308 322" fill="none" xmlns="http://www.w3.org/2000/svg">
<path fill-rule="evenodd" clip-rule="evenodd" d="M80.0008 201.191C63.4065 201.917 48.2892 207.945 35.2092 218.064C19.8245 229.966 1.96748 243.049 0.966365 262.332C-0.0579709 282.063 14.3233 299.599 30.3642 311.389C44.3981 321.704 62.5948 322.108 80.0008 320.422C95.3727 318.933 108.177 311.461 120.778 302.633C137.355 291.019 161.075 282.332 162.917 262.332C164.788 242.012 145.491 226.163 128.944 213.961C114.885 203.594 97.5245 200.424 80.0008 201.191Z" fill="#26B390"/>
<path opacity="0.7" fill-rule="evenodd" clip-rule="evenodd" d="M61.4257 108.816C61.4387 108.671 61.4014 108.527 61.3203 108.406C61.2391 108.286 61.119 108.197 60.9799 108.154C60.8408 108.112 60.6913 108.118 60.5563 108.172C60.4213 108.226 60.309 108.325 60.2383 108.452C54.1046 128.331 60.6923 145.805 68.4929 161.873C69.8263 177.799 69.7374 192.896 65.4164 198.932C56.5936 211.262 46.8152 213.867 38.8876 215.976C28.9854 218.612 21.8611 220.509 22.5183 238.312C22.6453 241.794 22.6485 244.168 22.55 245.592C22.0516 243.886 21.4325 240.869 20.7817 237.045C18.9593 226.393 21.7024 214.421 26.7376 203.054C33.0111 188.888 42.8276 175.681 51.8187 167.122C57.5588 161.649 59.3208 156.245 59.0763 150.88C58.8319 145.565 56.6158 140.357 54.3649 135.15C50.0937 125.28 48.083 115.493 48.3327 105.79C48.5444 96.0397 51.007 86.3754 55.7206 76.7965C58.3747 71.3802 61.1717 66.1919 63.3401 62.14C66.0165 57.1733 67.8293 53.8147 67.1086 53.2765C66.3372 52.6941 62.0861 57.8222 51.2345 72.1716C48.2851 76.062 46.0627 78.1038 44.5039 78.7591C43.888 79.0187 43.415 79.0345 43.088 78.8446C42.7609 78.6546 42.4943 78.2114 42.3355 77.5783C41.9133 75.8531 42.2307 72.944 43.234 69.4904C54.2347 31.6496 92.0437 9.60477 122.684 3.19456C133.399 0.956529 143.222 0.633642 150.695 2.22274C153.385 2.74566 155.975 3.69014 158.369 5.02108C157.249 4.83959 156.117 4.69608 154.972 4.59057C144.965 3.66623 134.056 5.61303 123.224 10.1176C99.0759 20.1618 75.2838 42.9537 62.6956 75.0934C57.7271 87.803 55.8634 93.6403 57.6159 94.324C59.2795 94.9571 63.829 90.2437 71.8709 81.8835L73.2202 80.4811L75.1251 80.8547L74.4012 81.3612C74.3307 81.404 74.2697 81.4605 74.2217 81.5274C74.1737 81.5943 74.1397 81.6702 74.1218 81.7505C74.0871 81.9106 74.1161 82.0779 74.2025 82.2173C74.2889 82.3566 74.4261 82.457 74.5853 82.4976C76.0331 82.8331 77.7602 83.1845 79.6301 83.5644L80.1413 83.6688C77.9268 86.0339 75.562 88.2543 73.0614 90.3165C67.9341 94.6881 64.5593 97.5655 64.1053 106.515C63.8386 111.687 64.6228 115.764 65.9816 117.876C66.6165 118.86 67.388 119.458 68.2643 119.601C69.1405 119.743 70.0803 119.417 71.0137 118.55C72.5503 117.116 74.1885 114.067 75.6775 109.018C75.941 113.45 76.3124 117.822 76.7696 122.197C77.3633 127.895 78.0904 133.545 78.8872 139.202C80.1572 148.357 82.0906 156.331 83.878 160.11C84.513 161.459 85.1797 162.326 85.8464 162.624C86.7354 163.01 87.4973 162.598 88.0688 161.234C88.8181 159.48 89.3609 155.726 89.5483 149.427C94.6978 155.143 103.914 162.636 115.248 167.714C124.005 171.636 134.028 174.124 144.428 173.26C165.401 171.519 170.897 159.331 176.681 146.514C178.815 141.785 180.989 136.964 183.983 132.608L184.164 132.348L184.19 132.307C190.101 123.732 190.717 122.811 190.254 110.31C190.245 110.148 190.174 109.996 190.056 109.885C189.938 109.773 189.781 109.711 189.619 109.712C162.315 111.222 161.852 102.08 161.525 95.8055C161.334 92.2 161.188 89.4206 157.08 89.4143C150.73 89.3985 149.46 92.6621 148.003 96.3943C146.054 101.415 143.739 107.369 125.462 105.964C110.607 104.821 108.921 101.168 106.918 96.828C106.067 94.9856 105.165 93.0293 103.295 91.0509C99.1521 86.6698 90.1705 84.4761 82.4906 82.8806L82.9129 82.3805C91.0627 84.1088 98.714 86.4513 105.349 92.1493C105.388 92.1842 105.432 92.213 105.48 92.2348C105.627 92.3043 105.796 92.3144 105.951 92.2631C106.106 92.2118 106.235 92.1031 106.311 91.9594L107.349 89.8828C108.591 87.3915 108.34 86.0145 108.711 86.2076C108.943 86.3279 108.451 86.5495 108.394 87.3124C108.234 89.3387 108.213 91.3736 108.331 93.4029C108.616 97.7428 109.823 100.506 112.601 102.244C115.293 103.928 119.43 104.574 125.643 104.72C127.176 104.758 128.602 104.834 129.907 104.903C137.294 105.302 140.968 105.502 145.387 97.6035C146.114 96.3057 146.841 95.0711 147.517 93.8967C149.66 90.2278 151.308 87.4042 151.619 85.0902C152.181 80.8705 148.603 78.6388 136.38 77.0149C128.856 76.0177 123.681 75.6505 119.427 76.29C115.106 76.9231 111.728 78.6008 107.81 81.6714C106.619 82.6096 105.479 83.6114 104.397 84.6723L103.292 85.7423C103.13 85.7423 103.53 84.6533 103.724 81.8265V81.6587C103.731 81.4989 103.676 81.3425 103.572 81.221C103.468 81.0994 103.321 81.0217 103.162 81.0034C97.3837 80.44 91.7008 79.4682 86.0179 78.395C86.2465 78.0785 86.4719 77.7619 86.7005 77.4201C89.0276 77.3504 90.9992 77.9835 93.1263 78.6641C95.9836 79.5853 99.1426 80.5919 103.711 80.2469C104.864 80.1583 105.934 79.5821 107.381 78.8224C111.759 76.5021 119.569 72.3584 141.555 76.5211C144.704 77.1162 147.124 77.9392 149.133 79.2941C151.143 80.6489 152.756 82.5387 154.315 85.2833C154.368 85.3762 154.445 85.4541 154.537 85.5094C154.629 85.5648 154.734 85.5959 154.842 85.5998L160.918 85.872C161.034 85.8765 161.148 85.8494 161.25 85.7936C161.351 85.7378 161.435 85.6555 161.493 85.5555C163.537 82.2159 168.068 80.1203 173.433 79.044C178.047 78.1799 182.758 77.9509 187.434 78.3634L187.58 79.7024C183.916 79.4707 180.238 79.5575 176.589 79.962C172.116 80.4843 168.1 81.5606 165.674 83.308C163.452 84.9161 162.537 88.2304 162.499 91.8201C162.436 96.1759 163.639 101 165.252 103.533C166.646 105.733 171.363 107.258 176.596 108.113C183.167 109.186 190.647 109.234 193.193 108.221C195.956 107.119 197.937 104.868 199.315 102.051C200.959 98.683 201.746 94.4886 201.981 90.5001C202.235 86.2234 202.343 83.6372 201.308 81.7948C200.273 79.9525 198.133 78.9743 193.968 78.0627C192.187 77.6771 190.385 77.3938 188.571 77.2143C187.158 64.4445 183.679 38.4491 174.519 26.9646C171.802 23.5521 168.604 21.3932 164.845 21.159C166.023 17.718 166.211 14.6886 165.557 12.0739C165.12 10.3263 164.287 8.70186 163.122 7.32559C169.673 9.10793 175.666 12.5142 180.542 17.2274C190.701 27.0595 197.003 43.3842 196.594 67.1131C196.571 68.4236 196.508 69.3764 196.464 70.0317C196.406 70.9181 196.378 71.3454 196.581 71.6588C196.93 72.1969 197.27 72.0798 197.921 71.855C198.491 71.6477 199.085 71.5116 199.689 71.4499C201.385 71.2758 203.366 71.8139 205.404 72.9693C207.763 74.3616 209.863 76.1501 211.611 78.2558C215.236 82.4818 216.741 83.6372 217.29 83.1845C217.84 82.7318 217.332 81.5701 216.728 80.1171C216.211 78.9753 215.786 77.7939 215.458 76.5844C215.364 76.238 215.357 75.8735 215.439 75.5239C215.614 74.9256 216.278 74.6186 217.255 74.5236C218.424 74.4065 219.976 74.6027 221.7 74.9889C227.053 76.1855 233.926 79.1959 236.438 80.7059C237.561 81.3519 238.728 81.9189 239.93 82.4026C240.908 82.7973 241.862 83.2475 242.787 83.7511C244.857 84.9287 245.867 84.7008 245.708 84.9889C245.597 85.1788 245.664 84.8084 245.441 84.8243C244.34 84.9034 242.438 85.0395 241.314 86.6254C241.056 86.9825 240.909 87.4075 240.892 87.8473C240.854 88.7495 241.346 89.7467 242.311 90.6583C243.442 91.6694 244.766 92.4434 246.203 92.9344C247.775 93.4965 249.411 93.8613 251.074 94.0201C251.363 94.3217 251.613 94.6589 251.817 95.0236C253.049 97.2305 254.122 99.5218 255.029 101.88C255.972 104.378 256.774 106.927 257.43 109.515C257.472 109.667 257.57 109.798 257.704 109.881C257.838 109.965 257.998 109.996 258.153 109.968C258.998 109.766 259.867 109.686 260.735 109.731C261.601 109.82 262.454 110.013 263.274 110.304C263.376 110.341 263.485 110.353 263.592 110.338C263.754 110.313 263.9 110.225 263.999 110.094C264.098 109.963 264.142 109.799 264.122 109.636C263.838 107.775 263.721 105.892 263.773 104.011C263.842 102.133 264.106 100.269 264.56 98.4456C264.589 98.3201 264.578 98.1889 264.53 98.0696C264.482 97.9503 264.398 97.8484 264.29 97.7776C263.247 97.1349 262.269 96.3929 261.37 95.5618C260.49 94.7145 259.7 93.78 259.011 92.7729C258.943 92.6785 258.85 92.6045 258.742 92.5593C258.634 92.5141 258.517 92.4993 258.401 92.5165C256.174 92.897 253.908 93.0033 251.655 92.8331C250.512 91.7663 249.077 91.0572 247.889 90.4716C247.412 90.2497 246.947 90.0024 246.496 89.7308C246.102 89.4808 245.778 89.2592 245.518 89.0692C245.816 89.1294 246.175 89.2149 246.588 89.3256C247.001 89.4392 247.428 89.4988 247.858 89.5029C248.543 89.5194 249.216 89.32 249.781 88.9331C250.369 88.5026 250.785 87.8794 250.956 87.1731C251.012 86.9654 251.053 86.7537 251.077 86.54C253.887 86.6476 255.969 86.5685 257.639 86.5083C262.084 86.3405 263.462 86.2899 268.259 90.5127C269.065 91.2218 269.507 91.608 269.903 91.9499C272.008 93.7764 273.043 94.6754 273.472 95.6694C273.901 96.6634 273.789 97.8441 273.65 100.25C273.605 100.94 273.555 101.725 273.504 102.684C273.431 104.14 273.361 105.669 273.288 107.201C272.97 113.849 272.675 120.516 271.7 126.961C268.326 149.205 262.255 160.645 256.299 164.843C253.988 166.47 251.712 166.979 249.632 166.596C247.553 166.213 245.661 164.931 244.124 162.972C240.514 158.369 238.924 150.12 241.546 140.99C245.794 126.191 254.363 124.381 254.76 124.295H254.81C254.943 124.237 255.051 124.136 255.118 124.008C255.184 123.881 255.206 123.734 255.177 123.593C255.149 123.451 255.074 123.324 254.963 123.231C254.853 123.139 254.714 123.086 254.569 123.083H254.502C253.953 123.153 249.423 123.637 237.146 121.336C233.282 120.611 230.831 119.693 229.682 118.708C229.221 118.316 229.005 117.939 229.024 117.588C229.044 117.236 229.313 116.809 229.825 116.381C231.215 115.217 234.136 114.102 238.438 113.232C239.39 113.042 243.959 111.826 246.473 110.699C247.056 110.469 247.598 110.149 248.08 109.75C248.715 109.139 248.753 108.572 247.953 108.091C247.562 107.857 246.819 107.683 245.622 107.594C244.157 105.763 242.902 103.773 241.883 101.662C240.886 99.6161 240.165 97.4479 239.74 95.2135C239.725 95.1278 239.692 95.0461 239.644 94.974C239.595 94.902 239.531 94.8411 239.457 94.7957C237.328 93.4041 235.358 91.7854 233.58 89.9683C233.136 89.497 232.655 89.061 232.142 88.6641C227.891 85.7201 224.929 84.207 223.418 83.8208C222.57 83.6055 221.995 83.7227 221.716 84.1373C221.437 84.552 221.541 85.125 222.056 85.8214C222.967 87.0496 225.424 89.1547 229.558 91.8106C231.612 93.1338 233.593 94.4665 235.425 96.7995C237.184 99.0407 238.828 102.228 240.311 107.246C238.044 107.407 236.361 108.221 234.533 109.107C233.634 109.541 232.701 109.993 231.653 110.373C225.662 104.359 225.053 102.833 224.621 101.754C224.024 100.25 223.738 99.5377 213.681 91.9214C210.979 89.8765 208.525 87.2491 206.14 84.6945C205.531 84.0424 204.924 83.3934 204.302 82.7382C204.218 82.6569 204.112 82.6007 203.997 82.5757C203.882 82.5507 203.763 82.558 203.652 82.5967C203.541 82.6354 203.443 82.7041 203.369 82.795C203.295 82.8859 203.248 82.9955 203.232 83.1117L202.864 87.2839C202.857 87.3791 202.871 87.4747 202.907 87.5635C202.942 87.6523 202.997 87.732 203.067 87.7967C214.497 100.278 215.589 102.991 216.887 106.252C217.617 108.18 218.532 110.033 219.621 111.785C223.278 117.774 225.38 122.349 225.773 124.865C225.9 125.663 225.859 126.179 225.646 126.372C225.434 126.565 225.04 126.486 224.361 126.191C222.303 125.299 218.779 122.364 213.668 116.923C211.128 114.232 209.579 111.225 207.912 108.028C206.356 105.039 204.715 101.88 202.105 98.5943C202.001 98.4684 201.852 98.3876 201.689 98.3687C201.526 98.3499 201.363 98.3944 201.232 98.493C201.134 98.5686 201.062 98.6726 201.026 98.7906C200.53 100.474 199.868 102.104 199.048 103.656C198.237 105.149 197.116 106.452 195.759 107.477C195.665 107.546 195.592 107.641 195.55 107.749C195.508 107.858 195.498 107.977 195.521 108.091C195.838 109.588 196.035 110.994 196.241 112.336C196.898 116.676 197.464 120.386 200.442 124.419C205.886 131.791 206.156 135.232 206.442 138.765C206.845 143.83 207.264 149.097 221.481 165.169C229.047 173.716 231.758 179.613 231.215 183.548C230.84 186.242 228.859 188.03 225.834 189.135C222.659 190.29 218.386 190.718 213.598 190.632C195.775 190.351 171.224 183.374 170.214 182.288C170.119 182.187 170.395 182.389 170.481 182.31C171.221 181.623 173.132 180.607 175.561 179.316C182.675 175.517 194.089 169.452 195.47 161.234C195.746 159.585 195.492 156.486 195.152 152.421C194.613 145.913 193.86 136.856 194.746 127.464C194.876 126.116 195.041 124.777 195.197 123.513C195.813 118.502 196.279 114.729 194.26 108.98C194.207 108.859 194.117 108.756 194.003 108.688C193.888 108.62 193.755 108.59 193.622 108.602C193.49 108.613 193.364 108.666 193.263 108.753C193.162 108.84 193.091 108.956 193.06 109.085C192.162 114.466 191.841 118.145 191.584 121.114C190.914 128.838 190.676 131.598 181.507 146.394C180.326 148.293 179.285 151.414 178.135 154.941C176.748 159.148 175.164 163.947 172.948 167.812C172.889 167.937 172.872 168.077 172.9 168.212C172.929 168.347 173 168.469 173.104 168.559C173.209 168.65 173.339 168.704 173.477 168.714C173.615 168.724 173.753 168.688 173.868 168.613C176.957 166.495 179.393 164.76 181.567 162.753C183.474 160.992 185.171 159.017 186.625 156.869C187.003 165.074 185.45 165.973 177.221 170.724L177.186 170.743C174.233 172.449 168.643 173.864 162.128 175.514C146.187 179.547 124.805 184.956 121.338 199.888C119.842 206.324 121.249 212.129 124.582 216.78C126.478 219.382 128.866 221.59 131.611 223.278C134.54 225.086 137.749 226.396 141.107 227.156C146.762 228.432 152.64 228.341 158.251 226.89C157.827 229.219 157.642 231.584 157.699 233.95C157.931 240.398 156.524 245.406 154.048 248.945C152.712 250.881 150.927 252.468 148.844 253.57C146.782 254.64 144.502 255.229 142.177 255.292C137.733 255.45 132.805 253.915 128.097 250.641C118.572 244.025 109.842 235.744 104.045 230.246C99.8283 226.248 97.0821 223.646 96.1678 224.209C94.8407 225.026 99.8982 233.491 114.296 256.757C114.31 256.78 114.326 256.801 114.344 256.821C136.342 284.953 145.689 295.595 151.191 291.325C155 288.365 156.521 278.118 159.001 261.455C160.502 251.382 162.353 238.938 165.246 224.364C166.929 223.569 168.557 222.659 170.116 221.642C163.131 245.918 174.56 251.059 192.101 258.954C195.514 260.489 199.162 262.12 202.934 264.019C203.067 264.07 203.213 264.075 203.349 264.033C203.486 263.991 203.604 263.905 203.685 263.788C203.766 263.671 203.805 263.53 203.796 263.388C203.787 263.247 203.731 263.112 203.635 263.006C200.848 260.426 198.273 258.188 195.911 256.137C186.704 248.122 180.704 242.921 176.421 229.505C184.212 237.922 192.012 242.921 200.118 243.772C208.887 244.693 217.951 240.768 227.659 231.085C227.744 230.99 227.798 230.871 227.815 230.745C227.831 230.618 227.809 230.49 227.751 230.377C227.693 230.263 227.602 230.17 227.49 230.108C227.378 230.047 227.25 230.021 227.123 230.034L225.294 230.255C213.325 231.737 197.486 233.696 193.819 218.894C190.962 207.41 187.295 201.193 183.377 198.657C182.257 197.896 180.965 197.424 179.617 197.283C178.269 197.142 176.907 197.337 175.653 197.85C173.167 198.799 170.751 200.781 168.538 203.434C165.646 206.916 163.087 211.541 161.179 216.444C151.527 216.267 145.939 214.817 143.4 212.699C141.117 210.8 141.539 208.226 143.771 205.567C146.184 202.69 150.616 199.724 156.083 197.267C169.735 191.142 189.704 188.255 200.721 197.9C207.791 204.092 206.947 210.246 206.55 213.152C206.359 214.564 206.232 215.415 207.147 215.618C207.966 215.805 209.591 214.545 213.709 211.348C216.249 209.369 219.795 206.625 224.504 203.117C232.758 196.941 238.536 198.125 242.692 203.655C250.089 213.497 252.725 236.726 255.074 257.52C256.293 268.283 257.439 278.413 259.144 285.735C263.078 302.654 268.154 310.258 274.186 309.941C280.133 309.625 286.844 301.458 294.169 286.833C296.074 283.034 296.445 280.132 296.896 276.611C297.626 270.888 298.578 263.443 307.036 247.28C307.081 247.193 307.104 247.097 307.104 246.999C307.104 246.902 307.081 246.806 307.036 246.719C297.572 225.488 286.946 204.827 276.32 184.171C273.332 178.363 270.345 172.554 267.211 166.391C267.121 166.276 266.993 166.195 266.849 166.164C266.706 166.132 266.556 166.151 266.425 166.217C266.294 166.283 266.19 166.392 266.131 166.526C266.072 166.66 266.061 166.81 266.1 166.951C269.005 172.649 272.11 178.698 275.215 184.735C285.793 205.311 296.375 225.871 305.792 246.973C297.359 263.148 296.397 270.67 295.658 276.456C295.223 279.856 294.867 282.642 293.048 286.269C285.93 300.492 279.564 308.428 274.116 308.71C268.757 308.992 264.122 301.689 260.35 285.465C258.661 278.204 257.519 268.121 256.303 257.39C253.931 236.438 251.277 213.032 243.673 202.918C239.06 196.783 232.733 195.419 223.748 202.133C218.843 205.802 215.408 208.464 212.931 210.388C209.144 213.326 207.652 214.485 207.407 214.431C207.163 214.377 207.674 214.048 207.772 213.336C208.198 210.224 209.099 203.617 201.527 196.989C190.098 186.97 169.551 189.876 155.559 196.156C149.927 198.689 145.333 201.769 142.803 204.789C140.088 208.027 139.647 211.208 142.59 213.652C145.273 215.9 150.981 217.451 160.686 217.672C159.753 220.231 159.01 222.855 158.464 225.523C152.883 227.06 147.007 227.2 141.358 225.931C138.136 225.203 135.057 223.947 132.246 222.215C129.635 220.612 127.363 218.515 125.56 216.042C122.43 211.67 121.116 206.207 122.516 200.145C125.811 185.963 146.771 180.658 162.395 176.704C168.998 175.036 174.665 173.599 177.777 171.804L177.808 171.785C187.218 166.353 188.45 165.64 187.723 154.909C187.708 154.783 187.654 154.664 187.57 154.568C187.485 154.473 187.374 154.405 187.25 154.374C187.126 154.342 186.996 154.349 186.876 154.392C186.756 154.436 186.652 154.514 186.577 154.618C184.955 157.274 182.978 159.696 180.701 161.82C178.964 163.387 177.125 164.836 175.195 166.16C176.872 162.677 178.154 158.8 179.304 155.314C180.453 151.829 181.453 148.806 182.548 147.037C191.876 131.984 192.124 129.148 192.809 121.212C193.019 118.787 193.273 115.875 193.844 111.988C194.835 116.103 194.441 119.316 193.943 123.355C193.793 124.558 193.625 125.831 193.495 127.347C192.597 136.866 193.352 145.973 193.895 152.519C194.213 156.508 194.476 159.531 194.213 161.025C192.943 168.641 181.853 174.539 174.948 178.217C172.436 179.553 170.462 180.604 169.608 181.383C168.935 182.016 168.779 182.576 169.29 183.114C170.351 184.251 195.479 191.566 213.563 191.851C218.497 191.927 222.932 191.493 226.262 190.268C229.723 189.002 232.002 186.903 232.447 183.681C233.037 179.404 230.247 173.171 222.411 164.317C208.471 148.559 208.071 143.507 207.683 138.635C207.388 134.925 207.099 131.313 201.445 123.656C198.648 119.857 198.108 116.299 197.47 112.121C197.283 110.87 197.083 109.569 196.819 108.192C198.176 107.111 199.304 105.773 200.14 104.254C200.828 102.984 201.399 101.654 201.848 100.282C203.978 103.131 205.432 105.935 206.813 108.591C208.531 111.852 210.118 114.938 212.769 117.762C218.008 123.339 221.659 126.369 223.881 127.322C225.062 127.834 225.935 127.803 226.507 127.28C227.078 126.758 227.215 125.9 227.021 124.669C226.602 121.997 224.443 117.258 220.703 111.133C219.649 109.442 218.762 107.652 218.055 105.79C216.719 102.431 215.605 99.6295 204.147 87.1129L204.366 84.5805L205.245 85.5302C207.661 88.1164 210.144 90.7755 212.947 92.8964C222.729 100.301 222.97 100.912 223.484 102.203C223.961 103.4 224.643 105.112 231.066 111.519C231.149 111.598 231.251 111.654 231.363 111.679C231.475 111.705 231.592 111.7 231.701 111.665C232.856 111.246 233.984 110.758 235.079 110.202C236.984 109.278 238.72 108.439 241.136 108.439C241.193 108.437 241.25 108.428 241.305 108.414C241.462 108.366 241.594 108.26 241.674 108.117C241.754 107.974 241.775 107.806 241.733 107.648C240.146 102.019 238.349 98.4899 236.409 96.0176C234.469 93.5453 232.38 92.1271 230.234 90.747C226.237 88.1766 223.884 86.1918 223.062 85.0648C222.894 84.8401 222.71 84.8749 222.745 84.8148C222.783 84.7578 222.827 84.9382 223.113 85.011C224.504 85.3656 227.316 86.8154 231.434 89.6675C231.886 90.0243 232.31 90.4136 232.704 90.8324C234.483 92.648 236.448 94.2714 238.568 95.6757C239.019 97.9271 239.757 100.112 240.762 102.178C241.859 104.452 243.218 106.59 244.813 108.55C244.867 108.623 244.936 108.683 245.016 108.726C245.097 108.769 245.186 108.793 245.276 108.797C245.856 108.816 246.432 108.889 246.997 109.015C246.667 109.224 246.321 109.406 245.962 109.56C243.527 110.652 239.101 111.829 238.193 112.013C233.679 112.928 230.574 114.134 229.024 115.425C228.237 116.084 227.818 116.79 227.78 117.518C227.742 118.246 228.097 118.987 228.869 119.645C230.18 120.766 232.825 121.782 236.914 122.548C244.032 123.884 248.619 124.289 251.353 124.381C248.14 126.229 243.232 130.592 240.346 140.645C237.609 150.18 239.317 158.85 243.143 163.732C244.864 165.928 247.019 167.372 249.407 167.812C251.794 168.252 254.404 167.685 257.004 165.852C263.201 161.487 269.491 149.784 272.929 127.128C273.91 120.649 274.221 113.922 274.516 107.236C274.583 105.752 274.653 104.27 274.732 102.725C274.777 101.842 274.828 101.025 274.875 100.307C275.044 97.7048 275.126 96.3816 274.599 95.1597C274.072 93.9378 272.954 92.9439 270.707 90.9939C270.126 90.4906 269.475 89.9271 269.065 89.5662C263.894 85.0142 262.398 85.068 257.582 85.2516C255.823 85.3149 253.607 85.4004 250.553 85.2516H250.474C250.305 85.2516 250.144 85.3183 250.025 85.437C249.906 85.5558 249.839 85.7168 249.839 85.8847C249.842 86.2101 249.804 86.5346 249.724 86.8502C249.626 87.2767 249.381 87.6553 249.032 87.9201C248.676 88.1552 248.256 88.2736 247.829 88.2589C247.507 88.2549 247.187 88.2091 246.877 88.1227C245.711 87.8062 244.88 87.6764 244.406 87.7207C244.237 87.7165 244.07 87.7627 243.927 87.8534C243.784 87.9441 243.671 88.0752 243.603 88.23C243.535 88.3848 243.515 88.5563 243.545 88.7227C243.575 88.889 243.654 89.0427 243.772 89.1642C244.054 89.5441 244.724 90.079 245.8 90.7723C246.29 91.0682 246.796 91.3377 247.315 91.5795C247.835 91.8359 248.407 92.1177 248.972 92.4437C248.166 92.2741 247.374 92.0477 246.6 91.7663C245.324 91.3318 244.147 90.6497 243.137 89.7593C242.438 89.0946 242.079 88.4361 242.102 87.8917C242.111 87.6931 242.178 87.5016 242.295 87.3409C243.089 86.2329 244.622 86.1221 245.511 86.0588C246.121 86.0145 246.55 85.9828 246.781 85.5966C247.159 84.9382 246.283 84.3146 243.397 82.6685C242.432 82.1419 241.438 81.6706 240.419 81.2567C239.278 80.7942 238.17 80.2527 237.104 79.6359C234.526 78.088 227.478 74.9984 221.992 73.7734C220.145 73.3587 218.459 73.1403 217.151 73.2827C215.652 73.4283 214.611 74.0044 214.262 75.182C214.122 75.7273 214.122 76.2987 214.262 76.8439C214.606 78.128 215.053 79.3824 215.598 80.5951C216.008 81.5859 216.662 82.1082 216.5 82.2443C216.43 82.3045 215.595 80.9781 212.576 77.4486C210.732 75.2344 208.518 73.3549 206.032 71.893C203.753 70.6078 201.518 70.0159 199.565 70.2153C198.916 70.279 198.277 70.4193 197.66 70.6332C197.676 70.5034 197.695 70.3324 197.708 70.1077C197.753 69.4746 197.813 68.5249 197.838 67.1321C198.254 43.0265 191.806 26.3979 181.412 16.3379C175.868 10.9872 168.944 7.27463 161.41 5.61303C158.839 3.46047 155.28 1.92835 150.981 1.01667C143.361 -0.607247 133.342 -0.287526 122.458 1.98849C91.469 8.46518 53.2061 30.7949 42.0561 69.1327C40.9926 72.792 40.6624 75.9323 41.1386 77.8632C41.3799 78.8319 41.8212 79.5378 42.4784 79.9145C43.1356 80.2912 43.9928 80.3134 44.9992 79.8892C46.7485 79.1548 49.1519 76.9864 52.2378 72.9092C62.5464 59.2974 66.3657 54.2483 66.3784 54.2578C66.5118 54.3591 64.6355 57.1353 62.2512 61.5386C60.0574 65.6158 57.2413 70.8357 54.5935 76.2393C49.8291 85.9638 47.3263 95.8013 47.085 105.752C46.8522 115.628 48.9 125.586 53.2283 135.625C55.4507 140.731 57.6096 145.837 57.8445 150.917C58.0731 155.948 56.4031 161.028 50.971 166.207C41.8879 174.868 31.9602 188.22 25.6201 202.538C20.4991 214.108 17.7084 226.321 19.5879 237.238C20.3531 241.715 21.0737 245.114 21.6325 246.675C21.8928 247.409 22.2008 247.853 22.55 247.96C23.1374 248.144 23.5342 247.773 23.7057 246.779C23.9152 245.577 23.9596 242.867 23.7914 238.267C23.1755 221.455 29.8997 219.663 39.2464 217.175C47.3612 215.013 57.381 212.348 66.4673 199.651C70.6803 193.76 71.0613 179.869 69.9914 164.849C70.7766 166.419 71.5608 167.978 72.3439 169.525C85.5194 195.605 96.8504 218.036 50.917 241.066C33.5413 249.78 24.4073 258.16 21.6928 264.288C20.5245 266.925 20.5118 269.195 21.5119 270.955C22.5119 272.715 24.493 273.902 27.325 274.408C34.1857 275.636 46.3231 272.825 61.6638 263.902L61.6987 263.88C76.2236 255.418 85.3004 242.933 89.7292 228.742C94.6343 213.013 93.8216 195.188 88.3736 178.426C83.7606 164.317 78.0459 150.443 72.3312 136.616C69.3564 129.386 66.3848 122.165 63.5846 114.938C63.5185 114.813 63.4123 114.713 63.2829 114.655C63.1535 114.597 63.0083 114.584 62.8706 114.618C62.7328 114.652 62.6104 114.731 62.5229 114.842C62.4354 114.954 62.3878 115.091 62.3877 115.232C62.6544 117.493 63.1719 120.911 63.81 125.122C65.1434 133.912 67.0039 146.176 68.1627 158.312C61.14 143.304 55.7968 127.027 61.4162 108.816H61.4257ZM73.4202 168.961C72.1788 166.508 70.9248 164.023 69.6961 161.5C68.5881 148.258 66.5213 134.539 65.0514 124.928C64.7942 123.232 64.5561 121.662 64.3465 120.25C66.5689 125.862 68.8834 131.468 71.1946 137.081C76.8776 150.883 82.5795 164.735 87.1545 178.806C92.5263 195.33 93.3327 212.892 88.5038 228.375C84.1669 242.303 75.2679 254.529 61.032 262.819H60.9971C45.9326 271.585 34.1159 274.364 27.5091 273.18C25.0581 272.74 23.366 271.752 22.5596 270.331C21.7531 268.91 21.7976 267.033 22.7945 264.775C25.4074 258.869 34.3508 250.733 51.4409 242.161C98.4854 218.562 86.8941 195.628 73.4202 168.942V168.961ZM22.8612 246.76C22.9532 246.795 22.9945 246.811 22.8802 246.776C22.8802 246.776 22.8802 246.776 22.8612 246.76ZM160.798 6.75579C162.532 8.2174 163.767 10.1812 164.331 12.3746C164.966 14.8722 164.741 17.8004 163.528 21.1622C160.988 21.3014 158.242 22.2859 155.213 24.3024C157.226 20.0764 157.407 17.908 156.239 17.2875C152.626 15.3629 133.199 33.8781 118.811 47.588C113.912 52.2572 109.604 56.3629 106.746 58.8827C111.007 51.2094 113.096 46.5592 113.62 44.1503C114.217 41.3963 113.271 40.7853 111.255 41.7096C109.883 42.3428 107.819 44.0236 105.368 46.3503C96.5297 54.7485 82.3763 71.7696 78.2396 77.2713C78.1441 77.4039 78.1036 77.5681 78.1267 77.7298C78.1498 77.8914 78.2346 78.0379 78.3634 78.1386C78.44 78.1944 78.5277 78.2333 78.6205 78.2526L79.2142 78.3666C78.3919 78.7971 77.5252 79.3004 76.6077 79.886C75.506 79.6739 74.3853 79.4587 73.1154 79.2086C73.005 79.1876 72.891 79.1961 72.7851 79.2334C72.6791 79.2706 72.5849 79.3353 72.5122 79.4207L70.9597 81.0351C63.2798 89.0154 58.943 93.5263 58.0509 93.1813C57.254 92.8647 59.1779 87.4675 63.8354 75.5556C76.2807 43.7482 99.8156 21.2033 123.681 11.2762C134.332 6.84443 145.041 4.94511 154.842 5.83779C156.836 6.01954 158.817 6.32615 160.772 6.75579H160.798ZM162.995 22.5138C161.306 26.4897 158.286 31.0323 153.705 36.1446C145.625 45.1601 142.571 48.0565 142.107 47.645C141.761 47.3285 143.006 44.1851 144.523 40.339C145.304 38.3605 146.152 36.2079 146.87 34.1314C147.451 32.4473 147.254 31.5324 146.419 31.2475C143.901 30.3834 132.472 41.2285 121.846 51.3107C116.328 56.5497 111.029 61.5766 107.4 64.606L87.1037 74.7357C87.0044 74.7859 86.9201 74.8612 86.8592 74.9541C86.5819 75.3762 86.3068 75.7919 86.0337 76.2013C84.3358 76.3507 82.6742 76.7786 81.1159 77.4675L79.846 77.2206C84.6082 71.0573 97.8314 55.2328 106.235 47.2462C108.591 45.005 110.547 43.4 111.785 42.8334C112.382 42.558 112.639 42.8334 112.42 43.8844C111.858 46.4738 109.34 51.8774 104.035 61.1967C103.978 61.3197 103.962 61.4577 103.99 61.5904C104.017 61.7231 104.087 61.8434 104.188 61.9338C104.289 62.0241 104.417 62.0797 104.552 62.0923C104.688 62.105 104.823 62.074 104.94 62.0039C107.245 60.3262 112.896 54.9416 119.674 48.4807C133.786 35.0335 152.841 16.876 155.661 18.3765C156.337 18.7373 155.626 21.026 152.962 25.9991C152.899 26.1238 152.879 26.2659 152.905 26.4032C152.931 26.5405 153.002 26.6653 153.107 26.7582C153.211 26.851 153.344 26.9068 153.484 26.9166C153.624 26.9265 153.763 26.8899 153.88 26.8126C157.248 24.1409 160.277 22.7956 163.001 22.5107L162.995 22.5138ZM154.629 36.9708C159.493 31.5451 162.645 26.705 164.35 22.4569C167.944 22.5455 170.973 24.5334 173.532 27.7401C182.421 38.8923 185.872 64.3591 187.291 77.1035C182.578 76.7101 177.833 76.954 173.186 77.8284C167.652 78.9364 162.928 81.1206 160.607 84.6217L155.21 84.3811C153.603 81.6239 151.911 79.6866 149.813 78.2748C147.654 76.8186 145.089 75.9386 141.768 75.3118C119.35 71.07 111.289 75.3403 106.781 77.7335C105.48 78.4267 104.489 78.949 103.606 79.0187C99.2791 79.3352 96.2567 78.3856 93.4977 77.496C91.504 76.8629 89.6403 76.2615 87.5418 76.1697L87.8085 75.7613L107.984 65.7044C108.043 65.6802 108.098 65.6471 108.146 65.6063C111.794 62.561 117.134 57.4898 122.7 52.2097C133.059 42.3776 144.206 31.8015 146.012 32.422C146.085 32.4473 145.99 32.8556 145.695 33.7293C144.974 35.8154 144.136 37.9363 143.368 39.8863C141.676 44.1724 140.291 47.683 141.282 48.5662C142.342 49.5159 145.939 46.6669 154.632 36.9708H154.629ZM85.0654 77.5847L84.6654 78.1418L83.5479 77.9265C84.0468 77.7839 84.5535 77.6698 85.0654 77.5847ZM83.8463 79.2466C83.3764 79.867 82.9118 80.4569 82.4525 81.0161C81.1223 80.7407 79.7794 80.478 78.4301 80.2184C79.3525 79.6738 80.3066 79.1844 81.2874 78.7528L83.8463 79.2466ZM81.5509 82.0956L81.1159 82.5957L79.8968 82.3488C78.6269 82.0861 77.3951 81.8392 76.2553 81.5922C76.4617 81.4498 76.668 81.3137 76.8712 81.1807C78.4586 81.4814 80.0048 81.779 81.5509 82.0956ZM73.8869 91.2756C76.6216 89.0275 79.1913 86.587 81.5763 83.9727C89.2308 85.5555 98.4028 87.6796 102.413 91.9246C104.14 93.7542 105 95.6156 105.81 97.3693C107.981 102.07 109.807 106.024 125.392 107.224C144.574 108.686 147.073 102.263 149.162 96.8501C150.451 93.539 151.575 90.6457 157.08 90.6583C160.017 90.6583 160.134 92.9312 160.286 95.872C160.639 102.605 161.156 112.383 189.06 110.984C189.466 122.488 188.79 123.488 183.193 131.611L183.161 131.652L182.983 131.912C179.904 136.378 177.713 141.237 175.561 146.005C169.935 158.48 164.585 170.338 144.339 172.019C134.18 172.864 124.338 170.436 115.766 166.577C103.822 161.234 94.2661 153.149 89.4752 147.426C89.4185 147.356 89.347 147.299 89.2658 147.26C89.1846 147.22 89.0957 147.199 89.0054 147.198C88.8408 147.198 88.6825 147.262 88.5641 147.376C88.4456 147.489 88.3762 147.645 88.3704 147.809C88.2339 154.903 87.7037 158.986 86.9481 160.753C86.7036 161.329 86.5068 161.557 86.3544 161.49C85.9798 161.329 85.5258 160.661 85.0146 159.591C83.278 155.916 81.4017 148.078 80.1318 139.04C79.3349 133.39 78.6078 127.743 78.0205 122.079C77.4331 116.416 76.976 110.744 76.7252 105.024C76.7101 104.881 76.647 104.748 76.5462 104.646C76.4455 104.544 76.3129 104.479 76.1702 104.461C76.0276 104.444 75.8833 104.476 75.7609 104.551C75.6386 104.626 75.5453 104.74 75.4965 104.875C73.8138 112.026 71.9121 116.036 70.1755 117.651C69.5406 118.236 68.9723 118.468 68.477 118.388C67.9817 118.309 67.4769 117.898 67.042 117.214C65.8101 115.315 65.1053 111.497 65.3593 106.587C65.7879 98.1702 69.0008 95.4288 73.8837 91.2661L73.8869 91.2756ZM83.8177 81.3232C84.2749 80.7502 84.7384 80.1519 85.2051 79.522C90.9198 80.6046 96.6345 81.5954 102.451 82.1905C102.219 85.5555 102.168 86.8882 103.162 86.9926C103.73 87.0528 104.308 86.4957 105.257 85.5808C106.31 84.545 107.417 83.5665 108.575 82.6495C112.312 79.7309 115.525 78.145 119.611 77.534C123.738 76.9009 128.818 77.2776 136.221 78.2589C147.501 79.7594 150.825 81.5954 150.387 84.9445C150.114 87.0085 148.517 89.7403 146.447 93.2921C145.781 94.4317 145.063 95.6599 144.304 97.0179C140.263 104.235 136.847 104.052 129.973 103.666C128.681 103.596 127.268 103.52 125.678 103.482C119.687 103.339 115.741 102.744 113.267 101.193C110.877 99.6991 109.832 97.2363 109.575 93.3237C109.462 91.3461 109.483 89.3631 109.639 87.3883C109.718 86.1221 109.769 85.3656 109.286 85.1123C108.531 84.7135 107.877 86.0272 106.229 89.3351L105.546 90.7027C99.0124 85.3212 91.6214 82.9977 83.8177 81.3073V81.3232ZM188.695 78.4742C190.372 78.6504 192.038 78.9177 193.686 79.2751C197.47 80.1044 199.362 80.899 200.203 82.4026C201.045 83.9063 200.962 86.3817 200.721 90.4304C200.496 94.2702 199.743 98.2968 198.181 101.51C196.93 104.071 195.159 106.103 192.724 107.072C190.352 108.021 183.171 107.936 176.78 106.891C171.859 106.087 167.468 104.732 166.303 102.874C164.801 100.503 163.68 95.9606 163.741 91.8264C163.785 88.5976 164.547 85.6505 166.414 84.3083C168.636 82.6938 172.462 81.6904 176.742 81.1902C180.388 80.7859 184.063 80.7054 187.723 80.9496L187.888 82.5102C188.206 85.47 187.888 86.6951 187.542 88.0151C187.012 90.0379 186.425 92.2728 187.679 100.266C187.739 100.649 187.818 101.187 187.892 101.687C188.171 103.634 188.371 105.011 189.009 105.688C190 106.739 191.489 106.081 194.625 103.156C196.075 101.832 197.167 100.165 197.8 98.3094C198.413 96.5177 198.657 94.4918 198.686 92.1335C198.686 91.3927 198.714 90.6773 198.73 90.0094C198.886 83.767 198.949 81.1617 192.146 80.1646C191.104 80.0126 190.003 79.8892 188.863 79.7942L188.723 78.4837L188.695 78.4742ZM188.965 81.0414C189.996 81.1301 190.993 81.2472 191.939 81.3865C197.654 82.2222 197.597 84.5045 197.46 89.9683C197.445 90.633 197.425 91.3389 197.416 92.1113C197.387 94.3272 197.162 96.2265 196.591 97.9011C196.027 99.5636 195.051 101.057 193.752 102.241C191.285 104.549 190.26 105.229 189.898 104.837C189.536 104.444 189.352 103.229 189.104 101.51C189.047 101.117 188.987 100.699 188.888 100.073C187.672 92.3361 188.225 90.231 188.726 88.3222C189.104 86.8882 189.454 85.5555 189.107 82.3741L188.965 81.0414ZM197.606 70.9845C197.604 70.9698 197.604 70.9549 197.606 70.9402C197.66 71.051 197.702 71.1238 197.606 70.9845ZM252.75 94.1246C254.578 94.1873 256.408 94.0813 258.217 93.808C258.897 94.7639 259.666 95.6542 260.512 96.4671C261.36 97.254 262.277 97.9628 263.252 98.5849C262.838 100.351 262.597 102.153 262.532 103.966C262.48 105.596 262.556 107.227 262.76 108.844C262.139 108.662 261.501 108.542 260.855 108.487C260.071 108.438 259.284 108.488 258.512 108.635C257.879 106.196 257.113 103.792 256.22 101.434C255.293 99.0198 254.195 96.6745 252.934 94.4158L252.763 94.1278L252.75 94.1246ZM159.553 226.526C161.021 226.097 162.462 225.582 163.868 224.982C161.064 239.226 159.255 251.382 157.782 261.268C155.346 277.628 153.851 287.691 150.441 290.34C145.819 293.936 136.79 283.496 115.35 256.08C101.441 233.604 96.4662 225.488 96.8313 225.26C96.9329 225.2 99.4029 227.546 103.2 231.145C109.029 236.672 117.804 244.997 127.398 251.661C132.332 255.089 137.52 256.697 142.234 256.529C144.743 256.46 147.203 255.824 149.429 254.668C151.68 253.469 153.61 251.749 155.054 249.651C157.674 245.903 159.182 240.638 158.924 233.905C158.871 231.43 159.083 228.956 159.559 226.526H159.553ZM170.855 219.641C169.177 220.838 167.409 221.904 165.566 222.829C165.939 220.982 166.328 219.103 166.734 217.191C166.765 217.031 166.732 216.865 166.643 216.728C166.553 216.591 166.415 216.494 166.255 216.457C166.194 216.449 166.132 216.449 166.071 216.457C164.826 216.485 163.639 216.495 162.502 216.488C164.341 211.876 166.766 207.533 169.487 204.254C171.567 201.762 173.811 199.901 176.084 199.04C177.157 198.6 178.322 198.433 179.476 198.552C180.629 198.671 181.735 199.074 182.694 199.724C186.361 202.098 189.841 208.074 192.603 219.22C196.549 235.08 213.014 233.044 225.453 231.509H225.469C216.547 239.97 208.242 243.402 200.248 242.56C191.851 241.677 183.723 236.083 175.526 226.659C175.432 226.558 175.308 226.491 175.172 226.467C175.036 226.442 174.896 226.463 174.773 226.525C174.65 226.587 174.55 226.688 174.49 226.812C174.429 226.935 174.41 227.075 174.437 227.21C178.865 242.984 185.12 248.419 195.098 257.09C196.511 258.318 198 259.622 199.575 261.015C197.168 259.875 194.844 258.831 192.619 257.827C175.284 250.027 164.141 245.013 171.811 220.335C171.841 220.212 171.833 220.084 171.79 219.966C171.746 219.848 171.668 219.746 171.566 219.672C171.464 219.599 171.342 219.557 171.216 219.552C171.09 219.548 170.966 219.581 170.859 219.648L170.855 219.641ZM164.163 223.497C162.754 224.134 161.308 224.685 159.832 225.146C160.385 222.618 161.119 220.132 162.026 217.707C163.085 217.72 164.194 217.72 165.353 217.707C164.93 219.67 164.533 221.6 164.163 223.497Z" fill="white"/>
</svg>
