<svg width="23" height="23" viewBox="0 0 23 23" fill="none" xmlns="http://www.w3.org/2000/svg">
<path opacity="0.5" d="M8.146 1.61133C8.07969 1.61133 8.0161 1.63767 7.96922 1.68455C7.92234 1.73144 7.896 1.79502 7.896 1.86133V6.86333C7.896 7.06224 7.81698 7.25301 7.67633 7.39366C7.53567 7.53431 7.34491 7.61333 7.146 7.61333H2.146C2.07969 7.61333 2.0161 7.63967 1.96922 7.68655C1.92234 7.73344 1.896 7.79702 1.896 7.86333V14.3633C1.896 14.5013 2.008 14.6133 2.146 14.6133H7.146C7.34491 14.6133 7.53567 14.6923 7.67633 14.833C7.81698 14.9736 7.896 15.1644 7.896 15.3633V20.3643C7.896 20.5023 8.008 20.6143 8.146 20.6143H14.646C14.7123 20.6143 14.7759 20.588 14.8228 20.5411C14.8697 20.4942 14.896 20.4306 14.896 20.3643V15.3633C14.896 15.1644 14.975 14.9736 15.1157 14.833C15.2563 14.6923 15.4471 14.6133 15.646 14.6133H20.646C20.7123 14.6133 20.7759 14.587 20.8228 14.5401C20.8697 14.4932 20.896 14.4296 20.896 14.3633V7.86333C20.896 7.79702 20.8697 7.73344 20.8228 7.68655C20.7759 7.63967 20.7123 7.61333 20.646 7.61333H15.646C15.4471 7.61333 15.2563 7.53431 15.1157 7.39366C14.975 7.25301 14.896 7.06224 14.896 6.86333V1.86233C14.896 1.79602 14.8697 1.73244 14.8228 1.68555C14.7759 1.63867 14.7123 1.61233 14.646 1.61233L8.146 1.61133ZM6.396 1.86133C6.396 0.895328 7.18 0.111328 8.146 0.111328H14.646C15.612 0.111328 16.396 0.895328 16.396 1.86133V6.11333H20.646C21.612 6.11333 22.396 6.89633 22.396 7.86333V14.3633C22.396 14.8275 22.2116 15.2726 21.8834 15.6008C21.5552 15.929 21.1101 16.1133 20.646 16.1133H16.396V20.3643C16.396 20.8285 16.2116 21.2736 15.8834 21.6018C15.5552 21.93 15.1101 22.1143 14.646 22.1143H8.146C7.68187 22.1143 7.23675 21.93 6.90856 21.6018C6.58037 21.2736 6.396 20.8285 6.396 20.3643V16.1133H2.146C1.68187 16.1133 1.23675 15.929 0.908559 15.6008C0.580371 15.2726 0.395996 14.8275 0.395996 14.3633V7.86333C0.395996 6.89733 1.18 6.11333 2.146 6.11333H6.396V1.86133Z" fill="#27BBA2"/>
</svg>
