<svg width="42" height="32" viewBox="0 0 42 32" fill="none" xmlns="http://www.w3.org/2000/svg">
<path opacity="0.5" d="M24.316 5.53566C27.7546 6.71646 30.7902 8.84366 33.0738 11.6727C35.3574 14.5018 36.7963 17.9178 37.2251 21.5281C31.9579 26.7532 24.2818 28.5469 17.1837 26.083C10.0855 23.6191 5.17163 17.4553 4.27461 10.0905C6.84805 7.5223 10.094 5.73244 13.6393 4.92669C17.1846 4.12094 20.8853 4.33202 24.316 5.53566ZM25.6128 1.79978C16.2731 -1.44217 6.28047 1.59849 0.202498 8.67702C0.587597 17.999 6.5472 26.5769 15.8869 29.8189C25.2266 33.0608 35.2192 30.0202 41.2972 22.9416C40.9121 13.6197 34.9525 5.04174 25.6128 1.79978ZM22.3708 11.1395C23.6093 11.5694 24.6263 12.4737 25.1981 13.6534C25.7699 14.8332 25.8496 16.1918 25.4197 17.4303C24.9898 18.6688 24.0855 19.6858 22.9057 20.2576C21.7259 20.8294 20.3674 20.9091 19.1289 20.4792C17.8903 20.0493 16.8733 19.145 16.3015 17.9652C15.7298 16.7854 15.6501 15.4269 16.08 14.1883C16.5099 12.9498 17.4142 11.9328 18.594 11.361C19.7737 10.7893 21.1323 10.7096 22.3708 11.1395ZM23.6676 7.4036C19.0351 5.79559 13.9521 8.25908 12.3441 12.8916C10.7361 17.5241 13.1996 22.607 17.8321 24.2151C22.4646 25.8231 27.5475 23.3596 29.1556 18.7271C30.7636 14.0946 28.3001 9.01161 23.6676 7.4036Z" fill="#27BBA2"/>
</svg>
