<svg width="36" height="36" viewBox="0 0 36 36" fill="none" xmlns="http://www.w3.org/2000/svg">
<circle cx="17.6415" cy="17.6415" r="17.6415" fill="#27BBA2"/>
<path d="M20.1473 24.9385L13.3914 18.2027C13.3112 18.1225 13.2543 18.0356 13.2206 17.942C13.1869 17.8485 13.1704 17.7483 13.1709 17.6413C13.1709 17.5344 13.1875 17.4342 13.2206 17.3406C13.2538 17.2471 13.3107 17.1602 13.3914 17.08L20.1473 10.3241C20.3344 10.137 20.5683 10.0435 20.849 10.0435C21.1296 10.0435 21.3702 10.1437 21.5707 10.3442C21.7711 10.5446 21.8714 10.7785 21.8714 11.0458C21.8714 11.3131 21.7711 11.547 21.5707 11.7475L15.6768 17.6413L21.5707 23.5352C21.7578 23.7223 21.8513 23.953 21.8513 24.2272C21.8513 24.5015 21.7511 24.7386 21.5506 24.9385C21.3502 25.139 21.1163 25.2392 20.849 25.2392C20.5817 25.2392 20.3478 25.139 20.1473 24.9385Z" fill="#FAFAFA"/>
</svg>
