<svg width="37" height="37" viewBox="0 0 37 37" fill="none" xmlns="http://www.w3.org/2000/svg">
<rect x="0.5" y="0.861816" width="36" height="36" rx="18" fill="#00FFCC" fill-opacity="0.1"/>
<path d="M18.5 10.8618C13.5 10.8618 9.23 13.9718 7.5 18.3618C9.23 22.7518 13.5 25.8618 18.5 25.8618C23.5 25.8618 27.77 22.7518 29.5 18.3618C27.77 13.9718 23.5 10.8618 18.5 10.8618ZM18.5 23.3618C15.74 23.3618 13.5 21.1218 13.5 18.3618C13.5 15.6018 15.74 13.3618 18.5 13.3618C21.26 13.3618 23.5 15.6018 23.5 18.3618C23.5 21.1218 21.26 23.3618 18.5 23.3618ZM18.5 15.3618C16.84 15.3618 15.5 16.7018 15.5 18.3618C15.5 20.0218 16.84 21.3618 18.5 21.3618C20.16 21.3618 21.5 20.0218 21.5 18.3618C21.5 16.7018 20.16 15.3618 18.5 15.3618Z" fill="#00FFCC"/>
</svg>
