<svg width="36" height="36" viewBox="0 0 36 36" fill="none" xmlns="http://www.w3.org/2000/svg">
<circle cx="17.9247" cy="17.6415" r="17.6415" fill="#27BBA2"/>
<path d="M15.4186 10.3442L22.1745 17.0801C22.2547 17.1602 22.3116 17.2471 22.3453 17.3407C22.379 17.4342 22.3955 17.5345 22.395 17.6414C22.395 17.7483 22.3784 17.8485 22.3453 17.9421C22.3121 18.0356 22.2552 18.1225 22.1745 18.2027L15.4186 24.9586C15.2315 25.1457 14.9976 25.2393 14.7169 25.2393C14.4363 25.2393 14.1957 25.139 13.9952 24.9386C13.7948 24.7381 13.6945 24.5042 13.6945 24.2369C13.6945 23.9696 13.7948 23.7357 13.9952 23.5352L19.8891 17.6414L13.9952 11.7475C13.8081 11.5604 13.7146 11.3297 13.7146 11.0555C13.7146 10.7812 13.8148 10.5441 14.0153 10.3442C14.2158 10.1437 14.4496 10.0435 14.7169 10.0435C14.9842 10.0435 15.2181 10.1437 15.4186 10.3442Z" fill="#FAFAFA"/>
</svg>
