<svg width="36" height="36" viewBox="0 0 36 36" fill="none" xmlns="http://www.w3.org/2000/svg">
<path d="M20.1478 24.939L13.3919 18.2031C13.3117 18.123 13.2548 18.0361 13.2211 17.9425C13.1874 17.849 13.1709 17.7487 13.1714 17.6418C13.1714 17.5349 13.188 17.4347 13.2211 17.3411C13.2543 17.2476 13.3112 17.1607 13.3919 17.0805L20.1478 10.3246C20.3349 10.1375 20.5688 10.0439 20.8495 10.0439C21.1301 10.0439 21.3707 10.1442 21.5712 10.3447C21.7716 10.5451 21.8719 10.779 21.8719 11.0463C21.8719 11.3136 21.7716 11.5475 21.5712 11.748L15.6773 17.6418L21.5712 23.5357C21.7583 23.7228 21.8518 23.9535 21.8518 24.2277C21.8518 24.502 21.7516 24.7391 21.5511 24.939C21.3506 25.1395 21.1168 25.2397 20.8495 25.2397C20.5822 25.2397 20.3483 25.1395 20.1478 24.939Z" fill="#27BBA2"/>
<circle cx="17.6415" cy="17.6415" r="17.2406" stroke="#27BBA2" stroke-width="0.801887"/>
</svg>
