<svg width="49" height="43" viewBox="0 0 49 43" fill="none" xmlns="http://www.w3.org/2000/svg">
<path opacity="0.3" d="M8.79025 8.76697C8.66772 8.82429 8.57599 8.92225 8.53524 9.03929C8.4945 9.15634 8.50807 9.28289 8.57297 9.3911L13.4694 17.5544C13.6641 17.8791 13.7048 18.2587 13.5826 18.6099C13.4603 18.961 13.1852 19.2549 12.8176 19.4268L3.57762 23.7493C3.45509 23.8066 3.36336 23.9045 3.32262 24.0216C3.28187 24.1386 3.29544 24.2652 3.36035 24.3734L9.72314 34.9815C9.85823 35.2067 10.1748 35.2927 10.4299 35.1734L19.6698 30.8509C20.0374 30.679 20.4673 30.643 20.8649 30.751C21.2625 30.8589 21.5952 31.102 21.79 31.4266L26.6854 39.5883C26.8205 39.8135 27.1371 39.8995 27.3921 39.7802L39.404 34.161C39.5266 34.1037 39.6183 34.0057 39.659 33.8887C39.6998 33.7716 39.6862 33.6451 39.6213 33.5369L34.7259 25.3752C34.5312 25.0505 34.4905 24.6709 34.6127 24.3197C34.7349 23.9686 35.0101 23.6747 35.3777 23.5028L44.6176 19.1803C44.7402 19.123 44.8319 19.0251 44.8726 18.908C44.9134 18.791 44.8998 18.6644 44.8349 18.5562L38.4721 7.9481C38.4072 7.83989 38.2963 7.75888 38.1638 7.7229C38.0312 7.68691 37.8879 7.6989 37.7654 7.75622L28.5255 12.0787C28.1579 12.2506 27.728 12.2866 27.3304 12.1786C26.9328 12.0707 26.6 11.8276 26.4053 11.503L21.5099 3.34131C21.445 3.2331 21.334 3.15209 21.2015 3.1161C21.069 3.08012 20.9257 3.09211 20.8032 3.14943L8.79025 8.76697ZM5.80099 10.6878C4.85538 9.1113 5.53675 7.15404 7.32191 6.31895L19.3338 0.699769C21.119 -0.135327 23.3353 0.466414 24.2809 2.04294L28.4431 8.98227L36.2971 5.30819C38.0822 4.4731 40.2975 5.07321 41.2441 6.65137L47.6069 17.2595C48.0612 18.0169 48.1562 18.9028 47.871 19.7221C47.5858 20.5414 46.9437 21.2271 46.086 21.6284L38.232 25.3024L42.3933 32.2401C42.8476 32.9976 42.9426 33.8834 42.6574 34.7028C42.3722 35.5221 41.7301 36.2078 40.8724 36.609L28.8605 42.2282C28.0027 42.6294 26.9997 42.7133 26.0719 42.4614C25.1442 42.2095 24.3677 41.6425 23.9134 40.885L19.7521 33.9473L11.8982 37.6214C11.0405 38.0226 10.0374 38.1065 9.10968 37.8546C8.18193 37.6027 7.40549 37.0357 6.95116 36.2782L0.588364 25.6701C-0.357244 24.0936 0.324128 22.1363 2.10928 21.3012L9.96324 17.6272L5.80099 10.6878Z" fill="#27BBA2"/>
</svg>
