<svg width="53" height="35" viewBox="0 0 53 35" fill="none" xmlns="http://www.w3.org/2000/svg">
<path opacity="0.3" d="M30.7634 6.17723C35.1261 7.50026 38.9774 9.88367 41.8747 13.0535C44.7719 16.2233 46.5975 20.0508 47.1415 24.096C40.4589 29.9504 30.7201 31.9601 21.7145 29.1994C12.7089 26.4388 6.47458 19.5326 5.33651 11.2807C8.60149 8.40316 12.7197 6.39771 17.2177 5.49491C21.7157 4.59211 26.4109 4.82861 30.7634 6.17723ZM32.4087 1.99137C20.5592 -1.64107 7.88139 1.76583 0.170133 9.69697C0.658718 20.1417 8.2198 29.7529 20.0693 33.3853C31.9188 37.0177 44.5966 33.6108 52.3079 25.6797C51.8193 15.2349 44.2582 5.62381 32.4087 1.99137ZM28.2956 12.456C29.8669 12.9377 31.1572 13.9509 31.8826 15.2728C32.6081 16.5946 32.7092 18.1169 32.1637 19.5046C31.6183 20.8923 30.471 22.0318 28.9742 22.6724C27.4774 23.3131 25.7538 23.4024 24.1824 22.9207C22.6111 22.439 21.3208 21.4257 20.5954 20.1039C19.8699 18.782 19.7688 17.2598 20.3143 15.8721C20.8597 14.4844 22.007 13.3449 23.5038 12.7043C25.0006 12.0636 26.7242 11.9743 28.2956 12.456ZM29.9408 8.27016C24.0635 6.46847 17.6146 9.22868 15.5745 14.4191C13.5343 19.6096 16.6598 25.3048 22.5372 27.1065C28.4145 28.9082 34.8634 26.148 36.9035 20.9575C38.9436 15.7671 35.8182 10.0719 29.9408 8.27016Z" fill="#27BBA2"/>
</svg>
